<?xml version="1.0" encoding="UTF-8" standalone="no"?>
<!-- Created with Inkscape (http://www.inkscape.org/) -->

<svg
   sodipodi:docname="profile.svg"
   id="svg5"
   version="1.1"
   viewBox="0 0 132.29167 52.916666"
   height="200"
   width="500"
   inkscape:version="1.1.2 (b8e25be833, 2022-02-05)"
   xmlns:inkscape="http://www.inkscape.org/namespaces/inkscape"
   xmlns:sodipodi="http://sodipodi.sourceforge.net/DTD/sodipodi-0.dtd"
   xmlns="http://www.w3.org/2000/svg"
   xmlns:svg="http://www.w3.org/2000/svg">
  <sodipodi:namedview
     id="namedview7"
     pagecolor="#ffffff"
     bordercolor="#666666"
     borderopacity="1.0"
     inkscape:pageshadow="2"
     inkscape:pageopacity="0.0"
     inkscape:pagecheckerboard="0"
     inkscape:document-units="mm"
     showgrid="false"
     units="px"
     inkscape:zoom="0.8391835"
     inkscape:cx="85.201866"
     inkscape:cy="64.94408"
     inkscape:window-width="1280"
     inkscape:window-height="658"
     inkscape:window-x="-6"
     inkscape:window-y="-6"
     inkscape:window-maximized="1"
     inkscape:current-layer="text1089" />
  <defs
     id="defs2" />
  <g
     inkscape:label="Layer 1"
     inkscape:groupmode="layer"
     id="layer1">
    <g
       aria-label="PROFILE"
       id="text1089"
       style="font-size:31.75px;line-height:1.75;stroke-width:0.264583">
      <path
         id="path50044"
         d="M 394.83789 55.732422 C 390.0332 55.732422 385.26759 57.451174 380.54102 60.888672 C 375.85352 64.326172 371.92773 69.599607 368.76367 76.708984 C 366.69336 81.435546 364.38867 89.169921 361.84961 99.912109 C 359.93555 108.03711 358.41211 113.4082 357.2793 116.02539 C 356.18555 118.60352 354.93555 120.40039 353.5293 121.41602 C 352.16211 122.43164 349.42774 123.33008 345.32617 124.11133 L 344.62305 127.27539 C 349.03711 126.61133 354.11523 126.2793 359.85742 126.2793 C 363.76367 126.2793 372.04492 126.8457 384.70117 127.97852 C 388.45117 128.33008 391.51757 128.50586 393.90039 128.50586 C 398.70508 128.50586 402.51367 127.27539 405.32617 124.81445 C 408.13867 122.35351 409.54492 119.42383 409.54492 116.02539 C 409.54492 114.22852 409.13476 112.82227 408.31445 111.80664 C 407.49414 110.75195 406.49805 110.22461 405.32617 110.22461 C 404.31054 110.22461 403.49022 110.53711 402.86523 111.16211 C 402.24023 111.74805 401.92773 112.56836 401.92773 113.62305 C 401.92773 114.36524 402.18164 115.36133 402.68945 116.61133 C 403.23633 117.93945 403.50977 118.97461 403.50977 119.7168 C 403.50977 120.88867 402.98242 121.94336 401.92773 122.88086 C 400.91212 123.7793 399.66213 124.22852 398.17773 124.22852 C 396.65431 124.22852 393.99804 123.7793 390.20898 122.88086 C 385.83398 121.86524 382.76757 121.24024 381.00977 121.00586 C 379.25193 120.73242 377.33788 120.5957 375.26758 120.5957 C 371.94727 120.5957 367.49414 121.2207 361.9082 122.4707 C 363.4707 120.67383 364.79883 118.4082 365.89258 115.67383 C 367.41602 111.8457 369.64258 104.0918 372.57227 92.412109 C 374.44727 85.068359 375.99023 79.794921 377.20117 76.591797 C 379.07618 71.865233 380.87307 68.310548 382.5918 65.927734 C 384.34963 63.505861 385.99025 61.865236 387.51367 61.005859 C 388.60742 60.380859 389.72069 60.068359 390.85352 60.068359 C 391.83007 60.068359 392.82616 60.322263 393.8418 60.830078 C 394.89649 61.33789 396.36133 62.412109 398.23633 64.052734 C 399.916 65.576171 401.34179 66.337891 402.51367 66.337891 C 403.41212 66.337891 404.17385 66.00586 404.79883 65.341797 C 405.46289 64.677734 405.79492 63.876952 405.79492 62.939453 C 405.79492 61.259766 404.74021 59.638671 402.63086 58.076172 C 400.52148 56.513672 397.92382 55.732422 394.83789 55.732422 z M 120.45508 55.849609 C 112.99414 55.849609 105.88477 57.54883 99.126953 60.947266 C 92.408203 64.345703 87.388672 68.642577 84.068359 73.837891 C 80.748047 79.033204 79.087891 84.638672 79.087891 90.654297 C 79.087891 95.341795 80.142579 99.287107 82.251953 102.49023 C 83.892578 104.95117 85.767579 106.18164 87.876953 106.18164 C 88.73633 106.18164 89.458984 105.88867 90.044922 105.30273 C 90.669922 104.67773 90.982422 103.95508 90.982422 103.13477 C 90.982422 102.4707 90.806642 101.8457 90.455078 101.25977 C 90.103517 100.67383 89.166015 99.736329 87.642578 98.447266 C 84.634765 95.830079 83.130859 92.705077 83.130859 89.072266 C 83.130859 84.267576 84.595702 79.677734 87.525391 75.302734 C 90.455079 70.888672 94.849611 67.197266 100.70898 64.228516 C 106.56836 61.259767 112.56446 59.775391 118.69727 59.775391 C 123.50195 59.775391 127.29102 60.947265 130.06445 63.291016 C 132.87695 65.634764 134.2832 68.623046 134.2832 72.255859 C 134.2832 76.943358 132.54492 81.005859 129.06836 84.443359 C 125.5918 87.841797 121.41211 89.541016 116.5293 89.541016 C 115.24023 89.541016 113.6582 89.345702 111.7832 88.955078 L 116.17773 71.669922 C 116.91992 68.779296 117.52539 66.591799 117.99414 65.107422 C 112.48633 66.513681 107.75977 67.236336 103.81445 67.275391 L 103.05273 70.087891 C 104.49805 70.048836 105.45508 70.205084 105.92383 70.556641 C 106.43164 70.908202 106.68555 71.435546 106.68555 72.138672 C 106.68555 72.88086 106.17773 75.341798 105.16211 79.521484 L 96.958984 112.27539 C 95.904295 116.49414 94.400389 119.44336 92.447266 121.12305 C 91.158202 122.17773 88.365234 123.25195 84.068359 124.3457 L 83.189453 127.62695 C 87.291017 126.72852 90.904298 126.2793 94.029297 126.2793 C 95.748047 126.2793 97.916016 126.41601 100.5332 126.68945 C 103.50195 126.96289 105.74805 127.09961 107.27148 127.09961 C 108.7168 127.09961 110.74805 126.82617 113.36523 126.2793 L 113.95117 123.4082 C 111.41211 123.99414 109.2832 124.28711 107.56445 124.28711 C 106.43164 124.28711 104.92774 124.15039 103.05273 123.87695 L 110.9043 92.763672 C 111.56836 92.685536 112.07617 92.646484 112.42773 92.646484 L 113.89258 92.763672 C 114.24414 93.701174 115.12305 96.552735 116.5293 101.31836 C 118.87305 109.13086 120.65039 114.50195 121.86133 117.43164 C 124.2832 123.29101 127.11523 128.31055 130.35742 132.49023 C 133.63867 136.66992 136.99805 139.67773 140.43555 141.51367 C 143.91211 143.34961 147.54492 144.26758 151.33398 144.26758 C 155.51367 144.26758 158.93164 143.17383 161.58789 140.98633 C 164.24414 138.79883 165.57227 136.49414 165.57227 134.07227 C 165.57227 133.13476 165.24023 132.33398 164.57617 131.66992 C 163.95117 131.00586 163.16992 130.67383 162.23242 130.67383 C 161.29492 130.67383 160.45508 131.02539 159.71289 131.72852 C 159.16602 132.23633 158.58008 133.56445 157.95508 135.71289 C 156.90039 139.11133 154.49805 140.81055 150.74805 140.81055 C 147.11524 140.81055 143.73633 139.05274 140.61133 135.53711 C 136.39258 130.73242 132.31055 122.45117 128.36523 110.69336 C 126.68555 105.69336 125.43555 102.13867 124.61523 100.0293 C 124.10742 98.779296 122.95508 96.357423 121.1582 92.763672 C 128.38477 91.591797 134.04883 88.935545 138.15039 84.794922 C 142.29102 80.654296 144.36133 76.18164 144.36133 71.376953 C 144.36133 66.259765 142.11523 62.392577 137.62305 59.775391 C 133.13086 57.158204 127.4082 55.849609 120.45508 55.849609 z M 54.701172 56.025391 C 39.701172 56.025391 27.748047 60.830077 18.841797 70.439453 C 12.044922 77.744141 8.6464844 85.830078 8.6464844 94.697266 C 8.6464844 99.541015 9.7207032 103.54492 11.869141 106.70898 C 14.017578 109.87305 16.244141 111.45508 18.548828 111.45508 C 19.408203 111.45508 20.150391 111.16211 20.775391 110.57617 C 21.400391 109.99023 21.712891 109.26758 21.712891 108.4082 C 21.712891 107.08008 20.755859 105.71289 18.841797 104.30664 C 16.53711 102.54883 14.935547 100.77148 14.037109 98.974609 C 13.138672 97.138671 12.689453 94.990233 12.689453 92.529297 C 12.689453 87.529297 14.408203 82.470704 17.845703 77.353516 C 21.322266 72.197265 26.244141 67.978515 32.611328 64.697266 C 38.978516 61.376953 45.482422 59.716797 52.123047 59.716797 C 57.943361 59.716797 62.259768 60.86914 65.072266 63.173828 C 67.923828 65.478516 69.349609 68.603515 69.349609 72.548828 C 69.349609 76.533201 68.177732 80.24414 65.833984 83.681641 C 63.529297 87.119141 60.892579 89.521486 57.923828 90.888672 C 54.99414 92.255863 52.279296 92.880862 49.779297 92.763672 L 44.388672 92.412109 L 48.724609 75.947266 C 49.857422 71.533203 50.91211 67.958984 51.888672 65.224609 C 47.865236 66.240234 43.021486 67.021484 37.357422 67.568359 L 36.654297 70.205078 C 37.162109 70.126943 37.552735 70.087891 37.826172 70.087891 C 38.529298 70.087891 39.134766 70.341795 39.642578 70.849609 C 40.15039 71.318359 40.404297 71.865234 40.404297 72.490234 C 40.404297 73.154295 40.208984 74.306641 39.818359 75.947266 L 30.970703 111.04492 C 29.642578 116.35742 27.923828 119.89258 25.814453 121.65039 C 24.330078 122.90039 21.556641 123.85742 17.494141 124.52148 L 16.791016 127.62695 C 20.775391 126.72852 24.662109 126.2793 28.451172 126.2793 C 30.404297 126.2793 32.943359 126.47461 36.068359 126.86523 C 39.974609 127.29492 42.943358 127.50977 44.974609 127.50977 C 47.083984 127.50977 49.662111 127.09961 52.708984 126.2793 L 53.412109 122.99805 C 50.13086 124.0918 47.064451 124.63867 44.212891 124.63867 C 41.947265 124.63867 39.291017 124.26758 36.244141 123.52539 C 37.220703 120.51758 38.099609 117.4707 38.880859 114.38477 L 43.509766 96.162109 C 45.501955 96.2793 46.966798 96.337891 47.904297 96.337891 C 53.998047 96.337891 59.525391 95.205078 64.486328 92.939453 C 69.486328 90.673828 73.255858 87.705077 75.794922 84.033203 C 78.373046 80.322264 79.662109 76.552734 79.662109 72.724609 C 79.662109 69.716798 78.744141 66.92383 76.908203 64.345703 C 75.11133 61.767579 72.376955 59.736327 68.705078 58.251953 C 65.072267 56.767576 60.404298 56.025391 54.701172 56.025391 z M 301.18164 56.025391 C 298.21289 56.767569 296.2793 57.177724 295.38086 57.255859 C 292.37305 57.568358 289.61914 57.724609 287.11914 57.724609 L 264.61914 57.724609 C 254.58008 57.724609 246.49414 61.00586 240.36133 67.568359 C 234.22852 74.169924 231.16211 81.396487 231.16211 89.248047 C 231.16211 93.271485 231.82617 96.376953 233.1543 98.564453 C 234.13086 100.20508 235.40039 101.02539 236.96289 101.02539 C 238.01758 101.02539 238.87696 100.73242 239.54102 100.14648 C 240.20508 99.521487 240.53711 98.798829 240.53711 97.978516 C 240.53711 97.158202 239.9707 95.71289 238.83789 93.642578 C 237.93944 91.962891 237.39257 90.673827 237.19727 89.775391 C 236.80664 88.173828 236.61133 86.61133 236.61133 85.087891 C 236.61133 81.298829 237.76367 77.568358 240.06836 73.896484 C 242.41211 70.185548 245.53711 67.236328 249.44336 65.048828 C 253.38867 62.861323 257.97851 61.689449 263.21289 61.533203 L 254.24805 96.630859 C 250.92773 109.01367 248.66211 116.39648 247.45117 118.7793 C 246.86523 119.95117 246.00586 120.94727 244.87305 121.76758 C 243.7793 122.58789 241.49414 123.36914 238.01758 124.11133 L 237.31445 127.33398 C 241.61133 126.63086 245.65429 126.2793 249.44336 126.2793 C 251.31836 126.2793 253.60352 126.37696 256.29883 126.57227 C 260.83008 126.8457 263.52539 126.98242 264.38477 126.98242 C 265.36133 126.98242 266.41602 126.90429 267.54883 126.74805 L 268.54492 123.4082 C 266.98242 123.68164 265.40039 123.81836 263.79883 123.81836 C 261.33789 123.81836 258.54492 123.56445 255.41992 123.05664 C 256.74805 119.61914 258.33008 114.75586 260.16602 108.4668 C 262.00195 102.17774 263.48633 96.318361 264.61914 90.888672 L 275.81055 90.888672 C 278.23242 90.966807 279.7168 91.142587 280.26367 91.416016 C 281.20117 91.884765 281.66992 92.587891 281.66992 93.525391 C 281.66992 93.916017 281.5332 95.224609 281.25977 97.451172 L 284.48242 97.451172 C 285.38086 92.099608 286.43555 86.96289 287.64648 82.041016 L 284.48242 82.041016 C 283.93555 84.267578 283.25195 85.654297 282.43164 86.201172 C 281.61133 86.748047 279.81445 87.021484 277.04102 87.021484 L 265.61523 87.021484 C 266.70898 82.177735 268.31055 75.966798 270.41992 68.388672 C 271.43554 64.716798 272.06054 62.43164 272.29492 61.533203 L 284.01367 61.533203 L 285.24414 61.591797 L 288.99414 61.533203 C 291.49414 61.533203 293.19336 61.845703 294.0918 62.470703 C 294.99023 63.095701 295.43945 64.052734 295.43945 65.341797 C 295.43945 66.279296 295.10742 68.38867 294.44336 71.669922 L 297.60742 71.669922 C 297.99805 69.404297 299.18945 64.189455 301.18164 56.025391 z M 195.4082 56.142578 C 187.86914 56.142578 181.22851 57.958983 175.48633 61.591797 C 169.74414 65.224608 164.90039 70.693359 160.95508 77.998047 C 157.00977 85.263672 155.03711 92.802734 155.03711 100.61523 C 155.03711 108.7793 157.49805 115.36133 162.41992 120.36133 C 167.38086 125.36133 173.86523 127.86133 181.87305 127.86133 C 188.82617 127.86133 195.1543 126.02539 200.85742 122.35352 C 206.56055 118.68164 211.38477 113.23242 215.33008 106.00586 C 219.27539 98.779297 221.24805 91.494139 221.24805 84.150391 C 221.24805 78.52539 220.1543 73.603517 217.9668 69.384766 C 215.7793 65.126954 212.69336 61.865235 208.70898 59.599609 C 204.76367 57.294922 200.33008 56.142578 195.4082 56.142578 z M 491.35352 56.259766 C 488.0332 57.158202 482.89648 57.607422 475.94336 57.607422 L 455.8457 57.607422 C 443.9707 57.607422 434.92772 60.869139 428.7168 67.392578 C 422.50585 73.916015 419.40039 81.279297 419.40039 89.482422 C 419.40039 93.310547 420.06445 96.337891 421.39258 98.564453 C 422.29102 100.08789 423.50196 100.84961 425.02539 100.84961 C 426.08008 100.84961 426.95899 100.51758 427.66211 99.853516 C 428.40431 99.189453 428.77539 98.427736 428.77539 97.568359 C 428.77539 96.708986 428.40431 95.595704 427.66211 94.228516 C 426.49025 91.962893 425.72852 90.205079 425.37695 88.955078 C 425.06446 87.705077 424.9082 86.240234 424.9082 84.560547 C 424.9082 80.615234 426.08009 76.865233 428.42383 73.310547 C 430.76759 69.716796 434.02931 66.806641 438.20898 64.580078 C 442.38869 62.353516 446.82227 61.240234 451.50977 61.240234 C 448.42383 73.66211 445.37696 85.458984 442.36914 96.630859 C 439.4004 107.80273 436.97851 115.24414 435.10352 118.95508 C 434.55664 120.12695 433.87307 121.02539 433.05273 121.65039 C 432.23243 122.23633 429.51756 123.17383 424.9082 124.46289 L 423.9707 127.68555 C 431.70508 126.74805 438.4629 126.2793 444.24414 126.2793 C 448.65823 126.2793 455.06448 126.74805 463.46289 127.68555 C 467.29102 128.11524 470.45507 128.33008 472.95508 128.33008 C 477.72071 128.33008 481.54885 127.08008 484.43945 124.58008 C 487.36914 122.08008 488.83398 119.16992 488.83398 115.84961 C 488.83398 114.28711 488.42382 113.03711 487.60352 112.09961 C 486.82226 111.16211 485.82617 110.69336 484.61523 110.69336 C 483.59962 110.69336 482.72071 111.04492 481.97852 111.74805 C 481.2754 112.45117 480.92383 113.25195 480.92383 114.15039 C 480.92383 115.00976 481.08009 115.92773 481.39258 116.9043 C 481.9004 118.31055 482.1543 119.32617 482.1543 119.95117 C 482.1543 121.04492 481.62696 122.02149 480.57227 122.88086 C 479.51758 123.74024 478.13086 124.16992 476.41211 124.16992 C 475.12306 124.16992 472.68164 123.75977 469.08789 122.93945 C 462.29102 121.45508 456.54885 120.71289 451.86133 120.71289 C 449.04883 120.71289 445.82617 121.2793 442.19336 122.41211 C 445.94336 114.87305 449.55664 104.46289 453.0332 91.181641 L 465.04492 91.181641 C 467.27149 91.181641 468.91211 91.279283 469.9668 91.474609 C 470.709 91.5918 471.2168 91.806644 471.49023 92.119141 C 472.03711 92.744141 472.31055 93.271485 472.31055 93.701172 C 472.31055 94.716796 472.21285 96.142577 472.01758 97.978516 L 475.00586 97.978516 C 475.98244 92.314453 477.09571 87.119139 478.3457 82.392578 L 475.00586 82.392578 C 474.61523 84.658203 473.97068 86.083984 473.07227 86.669922 C 472.21288 87.216797 469.86915 87.490234 466.04102 87.490234 L 453.91211 87.490234 L 460.41602 61.591797 L 468.9707 61.533203 C 477.52539 61.533203 482.44726 61.78711 483.73633 62.294922 C 485.06445 62.763671 485.72852 63.779297 485.72852 65.341797 C 485.72852 66.513672 485.57228 68.095704 485.25977 70.087891 L 488.36523 70.087891 C 488.79492 67.353516 489.79101 62.74414 491.35352 56.259766 z M 347.13086 56.962891 C 344.12305 57.431645 339.78711 57.744145 334.12305 57.900391 C 328.06836 58.056661 324.18164 58.232444 322.46289 58.427734 C 320.74414 58.58398 319.06445 58.876949 317.42383 59.306641 L 316.31055 62.529297 C 320.2168 61.708973 323.51758 61.33788 326.21289 61.416016 C 322.61914 76.298828 320.23633 85.947266 319.06445 90.361328 C 315.08008 105.63477 312.73633 114.3457 312.0332 116.49414 C 311.36914 118.60352 310.74414 120.00976 310.1582 120.71289 C 309.8457 121.10351 309.41602 121.43555 308.86914 121.70898 C 306.64258 122.76367 303.38086 123.62305 299.08398 124.28711 L 298.38086 127.39258 C 302.52149 126.65039 307.07227 126.2793 312.0332 126.2793 C 315.62695 126.2793 318.77148 126.39648 321.4668 126.63086 C 325.2168 126.98241 327.7168 127.13866 328.9668 127.09961 L 329.9043 124.28711 C 325.72461 124.4043 322.26758 124.01367 319.5332 123.11523 C 324.33789 103.23242 327.32617 91.064453 328.49805 86.611328 C 332.0918 73.095702 334.25976 65.634767 335.00195 64.228516 C 335.62695 63.134766 336.4082 62.314453 337.3457 61.767578 C 338.79102 60.947267 341.7207 60.400392 346.13477 60.126953 L 347.13086 56.962891 z M 191.13086 60.361328 C 196.56055 60.361328 201.13086 62.607422 204.8418 67.099609 C 208.5918 71.552734 210.4668 77.783202 210.4668 85.791016 C 210.4668 93.52539 209.23633 100.38086 206.77539 106.35742 C 204.35352 112.29492 201.24805 116.65039 197.45898 119.42383 C 193.70899 122.19727 189.72461 123.58398 185.50586 123.58398 C 179.8418 123.58398 175.11523 121.25976 171.32617 116.61133 C 167.53711 111.92383 165.64258 105.2832 165.64258 96.689453 C 165.64258 89.189452 166.85352 82.607422 169.27539 76.943359 C 171.69727 71.240234 174.80273 67.060546 178.5918 64.404297 C 182.41992 61.708985 186.59961 60.361328 191.13086 60.361328 z "
         transform="scale(0.26458333)"
         stroke-dasharray="3117.2"
         stroke="#000"
         stroke-width="1"
         fill="transparent">
        <animate
           attributeName="stroke-dashoffset"
           from="3117.2px"
           to="0"
           dur="10s"
           repeatCount="indefinite"/>
      </path>
    </g>
  </g>
</svg>
