<?xml version="1.0" encoding="iso-8859-1"?>
<!-- Generator: Adobe Illustrator 18.1.1, SVG Export Plug-In . SVG Version: 6.00 Build 0)  -->
<svg version="1.1" id="_x31_" xmlns="http://www.w3.org/2000/svg" xmlns:xlink="http://www.w3.org/1999/xlink" x="0px" y="0px"
	 viewBox="0 0 512 512" style="enable-background:new 0 0 512 512;" xml:space="preserve">
<g>
	<path style="fill:#263338;" d="M502.407,272.337v-11.09h-25.581v23.179h-7.993v-10.79h-8.794v-9.994h-7.194v-11.291h-21.584v25.282
		h-5.195V266.04h-7.994v-26.779h-4.797V228.87l-9.193-7.594l-9.193,7.594v11.992h-4.797v13.089h-13.989v19.286h-9.993v-10.393
		h-7.594V228.87h-8.043v-6.994h-6.296v6.994h-8.042v41.069h-5.596v-13.09h-9.993v5.897h-6.794v-25.881h-5.996v-23.681h-19.983
		v16.786h-8.394v35.673h-6.796V242.46L253,230.869v29.977h-8.793v-19.584h-5.196v-5.196h-4.796v5.196h-5.596v-26.381h-26.38v45.165
		h-12.391v14.69l-11.191,2.396v-27.878h-9.992v-7.395l-11.99-4.795v19.385h-8.794v9.194h-10.79v-16.49H126.3v8.094h-9.994v25.182
		h-7.194v-42.767h-7.993v-12.988h-7.195v12.988h-8.793v30.179h-4.796v-11.992H60.349v11.512l-12.091-6.241l-12.929,6.673v-27.8
		h-21.04v27.636H0v29.189h512v-26.479H502.407z M22.143,279.357h-2.919v-5.841h2.919V279.357z M29.859,257.247h-2.92v-5.837h2.92
		V257.247z M50.506,282.007h-2.92v-2.799h2.92V282.007z M73.656,284.154h-5.84v-2.922h5.84V284.154z M73.656,275.603h-5.84v-2.92
		h5.84V275.603z M73.656,267.051h-5.84v-2.92h5.84V267.051z M93.887,264.486h-2.92v-2.797h2.92V264.486z M100.769,273.934h-2.92
		v-2.798h2.92V273.934z M102.438,253.079h-2.92v-2.799h2.92V253.079z M124.992,270.399h-2.92v-2.797h2.92V270.399z M132.47,277.271
		h-2.92v-2.799h2.92V277.271z M132.47,262.92h-2.92v-2.797h2.92V262.92z M160.536,268.677h-2.919v-2.799h2.919V268.677z
		 M165.751,256.789h-2.919v-2.798h2.919V256.789z M168.879,274.932h-2.92v-2.797h2.92V274.932z M173.883,264.131h-2.92v-2.797h2.92
		V264.131z M198.791,272.266h-2.92v-2.8h2.92V272.266z M206.716,221.795h5.84v2.92h-5.84V221.795z M212.138,256.624h-5.839v-2.922
		h5.839V256.624z M212.138,229.928h5.84v2.92h-5.84V229.928z M221.733,242.65h-5.84v-2.92h5.84V242.65z M237.908,266.8h-2.92v-2.797
		h2.92V266.8z M237.908,256.313h-2.92v-2.799h2.92V256.313z M262.308,263.671h-2.92v-2.797h2.92V263.671z M262.308,248.179h-2.92
		v-2.799h2.92V248.179z M267.939,255.062h-2.92v-2.8h2.92V255.062z M289.002,273.057h-2.92v-2.797h2.92V273.057z M289.002,260.544
		h-2.92v-2.797h2.92V260.544z M295.77,248.488h-2.92v-5.838h2.92V248.488z M295.77,225.131h-2.92v-5.84h2.92V225.131z
		 M302.862,259.335h-2.92v-5.84h2.92V259.335z M302.862,238.062h-2.92v-5.84h2.92V238.062z M344.267,249.429h-2.92v-2.799h2.92
		V249.429z M344.267,238.168h-2.92v-2.797h2.92V238.168z M351.983,254.912h-2.919v-2.799h2.919V254.912z M351.983,243.024h-2.919
		v-2.797h2.919V243.024z M384.308,263.819h-2.919v-2.799h2.919V263.819z M397.655,263.671h-2.919v-2.799h2.919V263.671z
		 M404.12,256.164h-2.92v-2.799h2.92V256.164z M405.163,246.944h-2.92v-2.799h2.92V246.944z M406.723,234.456h-2.919v-2.797h2.919
		V234.456z M413.297,254.287h-2.92v-2.797h2.92V254.287z M442.803,285.613h-2.918v-2.799h2.918V285.613z M444.889,269.764h-2.92
		v-2.801h2.92V269.764z M454.9,277.271h-2.92v-2.799h2.92V277.271z M486.602,273.1h-2.921v-2.798h2.921V273.1z M495.36,280.609
		h-2.92v-2.799h2.92V280.609z"/>
</g>
</svg>
