<svg width="514" height="87" xmlns="http://www.w3.org/2000/svg" xmlns:xlink="http://www.w3.org/1999/xlink" overflow="hidden"><defs><clipPath id="clip0"><rect x="389" y="316" width="514" height="87"/></clipPath><clipPath id="clip1"><rect x="390" y="317" width="512" height="86"/></clipPath><clipPath id="clip2"><rect x="390" y="317" width="512" height="86"/></clipPath><clipPath id="clip3"><rect x="390" y="104" width="512" height="512"/></clipPath></defs><g clip-path="url(#clip0)" transform="translate(-389 -316)"><g clip-path="url(#clip1)"><g clip-path="url(#clip2)"><g clip-path="url(#clip3)"><path d="M501.508 271.849 501.508 260.779 475.972 260.779 475.972 283.917 467.994 283.917 467.994 273.146 459.215 273.146 459.215 263.17 452.034 263.17 452.034 251.899 430.489 251.899 430.489 277.136 425.303 277.136 425.303 265.564 417.324 265.564 417.324 238.833 412.535 238.833 412.535 228.46 403.359 220.88 394.182 228.46 394.182 240.431 389.394 240.431 389.394 253.496 375.43 253.496 375.43 272.748 365.455 272.748 365.455 262.373 357.874 262.373 357.874 228.46 349.846 228.46 349.846 221.479 343.561 221.479 343.561 228.46 335.533 228.46 335.533 269.456 329.947 269.456 329.947 256.389 319.972 256.389 319.972 262.276 313.19 262.276 313.19 236.441 307.205 236.441 307.205 212.802 287.258 212.802 287.258 229.558 278.879 229.558 278.879 265.167 272.095 265.167 272.095 242.026 252.547 230.456 252.547 260.379 243.77 260.379 243.77 240.83 238.583 240.83 238.583 235.643 233.796 235.643 233.796 240.83 228.21 240.83 228.21 214.496 201.877 214.496 201.877 259.58 189.508 259.58 189.508 274.244 178.337 276.636 178.337 248.808 168.363 248.808 168.363 241.426 156.395 236.64 156.395 255.99 147.616 255.99 147.616 265.167 136.846 265.167 136.846 248.707 126.074 248.707 126.074 256.786 116.098 256.786 116.098 281.923 108.917 281.923 108.917 239.233 100.938 239.233 100.938 226.268 93.7559 226.268 93.7559 239.233 84.9786 239.233 84.9786 269.358 80.1912 269.358 80.1912 257.387 60.241 257.387 60.241 268.879 48.1716 262.649 35.2658 269.31 35.2658 241.56 14.2634 241.56 14.2634 269.146 0 269.146 0 298.283 511.083 298.283 511.083 271.851 501.508 271.851ZM22.1034 278.857 19.1896 278.857 19.1896 273.026 22.1034 273.026 22.1034 278.857ZM29.8055 256.786 26.8908 256.786 26.8908 250.96 29.8055 250.96 29.8055 256.786ZM50.4156 281.502 47.5008 281.502 47.5008 278.708 50.4156 278.708 50.4156 281.502ZM73.5241 283.645 67.6946 283.645 67.6946 280.729 73.5241 280.729 73.5241 283.645ZM73.5241 275.11 67.6946 275.11 67.6946 272.195 73.5241 272.195 73.5241 275.11ZM73.5241 266.573 67.6946 266.573 67.6946 263.658 73.5241 263.658 73.5241 266.573ZM93.7189 264.012 90.8041 264.012 90.8041 261.22 93.7189 261.22 93.7189 264.012ZM100.589 273.444 97.6738 273.444 97.6738 270.651 100.589 270.651 100.589 273.444ZM102.255 252.626 99.3398 252.626 99.3398 249.832 102.255 249.832 102.255 252.626ZM124.768 269.915 121.853 269.915 121.853 267.123 124.768 267.123 124.768 269.915ZM132.233 276.775 129.318 276.775 129.318 273.981 132.233 273.981 132.233 276.775ZM132.233 262.449 129.318 262.449 129.318 259.657 132.233 259.657 132.233 262.449ZM160.249 268.196 157.335 268.196 157.335 265.402 160.249 265.402 160.249 268.196ZM165.454 256.329 162.54 256.329 162.54 253.536 165.454 253.536 165.454 256.329ZM168.577 274.44 165.662 274.44 165.662 271.648 168.577 271.648 168.577 274.44ZM173.572 263.658 170.657 263.658 170.657 260.866 173.572 260.866 173.572 263.658ZM198.435 271.779 195.52 271.779 195.52 268.984 198.435 268.984 198.435 271.779ZM206.346 221.398 212.175 221.398 212.175 224.313 206.346 224.313 206.346 221.398ZM211.758 256.165 205.93 256.165 205.93 253.248 211.758 253.248 211.758 256.165ZM211.758 229.516 217.588 229.516 217.588 232.431 211.758 232.431 211.758 229.516ZM221.336 242.216 215.507 242.216 215.507 239.301 221.336 239.301 221.336 242.216ZM237.482 266.322 234.567 266.322 234.567 263.53 237.482 263.53 237.482 266.322ZM237.482 255.854 234.567 255.854 234.567 253.06 237.482 253.06 237.482 255.854ZM261.838 263.199 258.924 263.199 258.924 260.407 261.838 260.407 261.838 263.199ZM261.838 247.735 258.924 247.735 258.924 244.941 261.838 244.941 261.838 247.735ZM267.459 254.605 264.545 254.605 264.545 251.81 267.459 251.81 267.459 254.605ZM288.485 272.568 285.57 272.568 285.57 269.776 288.485 269.776 288.485 272.568ZM288.485 260.078 285.57 260.078 285.57 257.286 288.485 257.286 288.485 260.078ZM295.24 248.043 292.326 248.043 292.326 242.216 295.24 242.216 295.24 248.043ZM295.24 224.728 292.326 224.728 292.326 218.898 295.24 218.898 295.24 224.728ZM302.32 258.871 299.405 258.871 299.405 253.041 302.32 253.041 302.32 258.871ZM302.32 237.636 299.405 237.636 299.405 231.806 302.32 231.806 302.32 237.636ZM343.651 248.982 340.736 248.982 340.736 246.188 343.651 246.188 343.651 248.982ZM343.651 237.742 340.736 237.742 340.736 234.95 343.651 234.95 343.651 237.742ZM351.353 254.456 348.439 254.456 348.439 251.662 351.353 251.662 351.353 254.456ZM351.353 242.589 348.439 242.589 348.439 239.797 351.353 239.797 351.353 242.589ZM383.62 263.347 380.706 263.347 380.706 260.553 383.62 260.553 383.62 263.347ZM396.943 263.199 394.029 263.199 394.029 260.405 396.943 260.405 396.943 263.199ZM403.397 255.705 400.482 255.705 400.482 252.911 403.397 252.911 403.397 255.705ZM404.438 246.502 401.523 246.502 401.523 243.708 404.438 243.708 404.438 246.502ZM405.995 234.036 403.081 234.036 403.081 231.244 405.995 231.244 405.995 234.036ZM412.557 253.832 409.642 253.832 409.642 251.04 412.557 251.04 412.557 253.832ZM442.01 285.102 439.098 285.102 439.098 282.308 442.01 282.308 442.01 285.102ZM444.093 269.281 441.178 269.281 441.178 266.485 444.093 266.485 444.093 269.281ZM454.086 276.775 451.171 276.775 451.171 273.981 454.086 273.981 454.086 276.775ZM485.731 272.611 482.815 272.611 482.815 269.818 485.731 269.818 485.731 272.611ZM494.473 280.107 491.558 280.107 491.558 277.313 494.473 277.313 494.473 280.107Z" fill="#263338" transform="matrix(1.00179 0 0 1 390 104.829)"/></g></g></g></g></svg>